<svg width="28" height="28" viewBox="0 0 28 28" fill="none" xmlns="http://www.w3.org/2000/svg">
<path d="M14 9.05748C12.6872 9.05748 11.4282 9.57813 10.4999 10.5049C9.57159 11.4316 9.05008 12.6886 9.05008 13.9992C9.05008 15.3098 9.57159 16.5668 10.4999 17.4935C11.4282 18.4203 12.6872 18.9409 14 18.9409C15.3129 18.9409 16.5719 18.4203 17.5002 17.4935C18.4285 16.5668 18.95 15.3098 18.95 13.9992C18.95 12.6886 18.4285 11.4316 17.5002 10.5049C16.5719 9.57813 15.3129 9.05748 14 9.05748Z" fill="#F2F1E0"/>
<path fill-rule="evenodd" clip-rule="evenodd" d="M6.03441 0.439133C11.3286 -0.146378 16.6714 -0.146378 21.9657 0.439133C24.858 0.761485 27.1898 3.03467 27.5294 5.9328C28.1569 11.2922 28.1569 16.7062 27.5294 22.0656C27.1898 24.9637 24.858 27.2369 21.9672 27.5608C16.6725 28.1464 11.3291 28.1464 6.03441 27.5608C3.14211 27.2369 0.810292 24.9637 0.470648 22.0671C-0.156883 16.7073 -0.156883 11.2927 0.470648 5.9328C0.810292 3.03467 3.14211 0.761485 6.03441 0.439133ZM21.6154 4.87603C21.2114 4.87603 20.824 5.03623 20.5384 5.32139C20.2528 5.60654 20.0923 5.99329 20.0923 6.39656C20.0923 6.79983 20.2528 7.18658 20.5384 7.47174C20.824 7.75689 21.2114 7.91709 21.6154 7.91709C22.0193 7.91709 22.4067 7.75689 22.6923 7.47174C22.978 7.18658 23.1384 6.79983 23.1384 6.39656C23.1384 5.99329 22.978 5.60654 22.6923 5.32139C22.4067 5.03623 22.0193 4.87603 21.6154 4.87603ZM6.76548 13.9992C6.76548 12.0837 7.52769 10.2466 8.88444 8.89212C10.2412 7.53763 12.0813 6.77669 14 6.77669C15.9188 6.77669 17.7589 7.53763 19.1157 8.89212C20.4724 10.2466 21.2346 12.0837 21.2346 13.9992C21.2346 15.9147 20.4724 17.7518 19.1157 19.1063C17.7589 20.4608 15.9188 21.2217 14 21.2217C12.0813 21.2217 10.2412 20.4608 8.88444 19.1063C7.52769 17.7518 6.76548 15.9147 6.76548 13.9992Z" fill="#F2F1E0"/>
</svg>
