<svg width="267" height="43" viewBox="0 0 267 43" fill="none" xmlns="http://www.w3.org/2000/svg">
<path d="M118.305 6.63937C118.331 11.057 121.657 13.2528 124.944 13.2528C127.335 13.2528 129.79 12.2263 130.713 9.52379C131.155 8.26348 131.155 7.02916 131.09 5.72987H124.97V8.6013H127.725C127.127 9.83562 126.282 10.1864 124.944 10.1864C122.982 10.1864 121.735 8.7832 121.735 6.63937C121.735 4.66445 122.865 3.02734 124.944 3.02734C126.256 3.02734 127.114 3.4821 127.647 4.58649H130.908C130.271 1.36425 127.556 0.0259858 124.944 0C121.657 0 118.331 2.22179 118.305 6.63937Z" fill="#F2F1E0"/>
<path d="M140.597 10.3163C139.636 10.3163 138.622 9.79663 138.622 8.7442V0.168888C137.583 0.168888 136.491 0.168888 135.465 0.168888V8.79617C135.465 11.6546 137.96 13.2917 140.597 13.2917C143.261 13.2917 145.716 11.6546 145.716 8.79617V0.168888C144.69 0.168888 143.612 0.168888 142.559 0.168888V8.7442C142.559 9.79663 141.559 10.3163 140.597 10.3163Z" fill="#F2F1E0"/>
<path d="M154.668 10.2125V3.05337H156.176V0.168945H149.874V3.05337H151.394V10.2125H149.744V13.1099H156.306V10.2125H154.668Z" fill="#F2F1E0"/>
<path d="M168.584 13.1098H171.819V12.6291L165.973 0H164.556L158.723 12.6291V13.1098H161.958L162.724 11.4857H167.831L168.584 13.1098ZM166.752 8.65327H163.79L165.258 5.24913L166.752 8.65327Z" fill="#F2F1E0"/>
<path d="M124.927 23.7089L119.86 18.083H118.639V31.0629C119.769 31.0629 120.899 31.0629 122.03 31.0629V25.2941L124.758 28.1785H125.135L127.89 25.2941V31.0629C129.02 31.0629 130.137 31.0629 131.268 31.0629V18.083H130.085L124.927 23.7089Z" fill="#F2F1E0"/>
<path d="M144.666 31.063H147.902V30.5822L142.055 17.9531H140.638L134.805 30.5822V31.063H138.04L138.806 29.4388H143.913L144.666 31.063ZM142.834 26.6064H139.872L141.34 23.2023L142.834 26.6064Z" fill="#F2F1E0"/>
<path d="M159.88 26.4765C163.155 24.2548 162.219 18.1351 157.139 18.1221C155.255 18.1221 153.332 18.1221 151.461 18.1221C151.461 22.4487 151.461 26.7494 151.461 31.063C152.539 31.063 153.67 31.063 154.774 31.063V27.2561H156.489L158.711 31.063H162.414V30.5823L159.88 26.4765ZM157.139 24.3197H154.774C154.774 23.2803 154.774 22.1369 154.774 21.0845C155.554 21.0845 156.359 21.0585 157.139 21.0845C159.023 21.0975 158.932 24.3197 157.139 24.3197Z" fill="#F2F1E0"/>
<path d="M179.075 31.0631V30.6344L177.749 28.4386C178.399 27.4251 178.789 26.1388 178.789 24.6057C178.789 15.6665 165.51 15.6665 165.51 24.6057C165.51 30.5824 171.487 32.5573 175.398 30.4655L175.709 31.0631H179.075ZM168.914 24.6057C168.914 19.9542 175.385 19.9542 175.385 24.6057C175.385 29.3091 168.914 29.3091 168.914 24.6057Z" fill="#F2F1E0"/>
<path d="M188.218 28.2697C187.257 28.2697 186.243 27.75 186.243 26.6976V18.1222C185.204 18.1222 184.112 18.1222 183.086 18.1222V26.7495C183.086 29.608 185.58 31.2451 188.218 31.2451C190.882 31.2451 193.337 29.608 193.337 26.7495V18.1222C192.311 18.1222 191.232 18.1222 190.18 18.1222V26.6976C190.18 27.75 189.179 28.2697 188.218 28.2697Z" fill="#F2F1E0"/>
<path d="M202.29 28.1656V21.0065H203.797V18.1221H197.496V21.0065H199.016V28.1656H197.366V31.063H203.927V28.1656H202.29Z" fill="#F2F1E0"/>
<path d="M217.92 31.0762H219.102V18.1223C217.972 18.1223 216.855 18.1223 215.724 18.1223V24.4628L209.176 18.0703H207.98V31.0632C209.098 31.0632 210.254 31.0632 211.398 31.0632V24.6967L217.92 31.0762Z" fill="#F2F1E0"/>
<path d="M235.051 18.1222C233.921 18.1222 232.803 18.1222 231.673 18.1222V22.8127H227.671V18.1222C226.554 18.1222 225.397 18.1222 224.293 18.1222V31.0631C225.397 31.0631 226.554 31.0631 227.671 31.0631V25.866H231.673V31.0631C232.803 31.0631 233.921 31.0631 235.051 31.0631V18.1222Z" fill="#F2F1E0"/>
<path d="M252.721 24.6057C252.721 15.6666 239.442 15.6666 239.442 24.6057C239.442 33.5838 252.721 33.5838 252.721 24.6057ZM242.846 24.6057C242.846 19.9542 249.342 19.9542 249.342 24.6057C249.342 29.3091 242.846 29.3091 242.846 24.6057Z" fill="#F2F1E0"/>
<path d="M259.388 27.1007C258.258 27.1007 257.296 27.1007 256.192 27.1007C256.114 32.8046 266.651 32.7136 266.651 27.2696C266.651 24.0344 264.143 23.6446 261.571 23.3717C260.402 23.2418 259.44 23.0339 259.518 22.0594C259.635 20.5263 263.104 20.3833 263.104 22.0984C264.234 22.0984 265.079 22.0984 266.248 22.0984C266.326 16.5115 256.27 16.5115 256.374 22.0984C256.413 24.9049 258.258 25.8664 261.077 26.0742C262.363 26.1392 263.442 26.3471 263.442 27.2566C263.442 28.7768 259.388 28.7508 259.388 27.1007Z" fill="#F2F1E0"/>
<path d="M121.009 41.9997C120.463 41.9997 119.969 41.8828 119.528 41.6489C119.086 41.4086 118.738 41.074 118.488 40.6485C118.235 40.2262 118.111 39.7455 118.111 39.2063C118.111 38.68 118.235 38.2026 118.488 37.777C118.748 37.3548 119.099 37.0235 119.541 36.7896C119.982 36.5492 120.476 36.4258 121.022 36.4258C121.463 36.4258 121.866 36.5037 122.23 36.6597C122.6 36.8156 122.912 37.0429 123.166 37.3353L122.516 37.946C122.116 37.5237 121.632 37.3093 121.061 37.3093C120.687 37.3093 120.353 37.3938 120.06 37.5562C119.765 37.7121 119.534 37.9395 119.372 38.2318C119.206 38.5176 119.125 38.8425 119.125 39.2063C119.125 39.5798 119.206 39.9079 119.372 40.1937C119.534 40.4796 119.765 40.7069 120.06 40.8694C120.353 41.035 120.687 41.1162 121.061 41.1162C121.632 41.1162 122.116 40.9051 122.516 40.4796L123.166 41.0902C122.912 41.3858 122.6 41.6099 122.23 41.7659C121.857 41.9218 121.451 41.9997 121.009 41.9997Z" fill="#F2F1E0"/>
<path d="M130.797 36.5039V41.9219H129.783V39.5962H126.99V41.9219H125.977V36.5039H126.99V38.7387H129.783V36.5039H130.797Z" fill="#F2F1E0"/>
<path d="M137.618 40.6616H134.902L134.37 41.9219H133.33L135.773 36.5039H136.76L139.203 41.9219H138.15L137.618 40.6616ZM137.28 39.8821L136.253 37.5044L135.24 39.8821H137.28Z" fill="#F2F1E0"/>
<path d="M143.979 36.5039C144.446 36.5039 144.852 36.5818 145.2 36.7377C145.544 36.8937 145.811 37.1145 145.992 37.4004C146.181 37.6862 146.278 38.0305 146.278 38.4268C146.278 38.8263 146.181 39.1739 145.992 39.4662C145.811 39.7521 145.544 39.973 145.2 40.1289C144.852 40.2848 144.446 40.3628 143.979 40.3628H142.757V41.9219H141.744V36.5039H143.979ZM143.927 39.5052C144.368 39.5052 144.7 39.4143 144.927 39.2324C145.151 39.044 145.265 38.7744 145.265 38.4268C145.265 38.0825 145.151 37.8162 144.927 37.6343C144.7 37.4459 144.368 37.3484 143.927 37.3484H142.757V39.5052H143.927Z" fill="#F2F1E0"/>
<path d="M152.735 40.6616H150.019L149.487 41.9219H148.447L150.89 36.5039H151.877L154.32 41.9219H153.268L152.735 40.6616ZM152.397 39.8821L151.371 37.5044L150.357 39.8821H152.397Z" fill="#F2F1E0"/>
<path d="M156.863 36.5037H159.227C159.806 36.5037 160.322 36.6174 160.774 36.8416C161.222 37.0689 161.569 37.384 161.813 37.79C162.063 38.1993 162.19 38.6703 162.19 39.2063C162.19 39.7455 162.063 40.2197 161.813 40.6355C161.569 41.0448 161.222 41.3598 160.774 41.584C160.322 41.8113 159.806 41.9218 159.227 41.9218H156.863V36.5037ZM159.189 41.0642C159.585 41.0642 159.932 40.9928 160.228 40.8434C160.53 40.6875 160.764 40.4731 160.93 40.1937C161.092 39.9079 161.176 39.5798 161.176 39.2063C161.176 38.836 161.092 38.5111 160.93 38.2318C160.764 37.9557 160.53 37.7381 160.228 37.5821C159.932 37.4262 159.585 37.3483 159.189 37.3483H157.876V41.0642H159.189Z" fill="#F2F1E0"/>
<path d="M169.287 41.1576H166.572L166.039 42.4179H165L167.442 36.9998H168.43L170.872 42.4179H169.82L169.287 41.1576ZM168.95 40.378L167.923 38.0003L166.91 40.378H168.95Z" fill="#F2F1E0"/>
<path d="M176.736 36.5039H179.101C179.679 36.5039 180.196 36.6176 180.647 36.8417C181.095 37.0691 181.443 37.3842 181.687 37.7902C181.937 38.1995 182.063 38.6705 182.063 39.2064C182.063 39.7456 181.937 40.2199 181.687 40.6356C181.443 41.0449 181.095 41.36 180.647 41.5841C180.196 41.8115 179.679 41.9219 179.101 41.9219H176.736V36.5039ZM179.062 41.0644C179.458 41.0644 179.806 40.993 180.101 40.8435C180.404 40.6876 180.637 40.4732 180.803 40.1939C180.966 39.908 181.05 39.58 181.05 39.2064C181.05 38.8361 180.966 38.5113 180.803 38.232C180.637 37.9559 180.404 37.7382 180.101 37.5823C179.806 37.4264 179.458 37.3484 179.062 37.3484H177.75V41.0644H179.062Z" fill="#F2F1E0"/>
<path d="M184.98 36.5039H185.994V41.9219H184.98V36.5039Z" fill="#F2F1E0"/>
<path d="M192.817 40.6616H190.101L189.568 41.922H188.529L190.972 36.5039H191.959L194.402 41.922H193.349L192.817 40.6616ZM192.479 39.8821L191.452 37.5044L190.439 39.8821H192.479Z" fill="#F2F1E0"/>
<path d="M201.922 41.9217V38.3227L200.142 41.2981H199.687L197.907 38.3747V41.9217H196.945V36.5037H197.777L199.921 40.0897L202.038 36.5037H202.87L202.883 41.9217H201.922Z" fill="#F2F1E0"/>
<path d="M209.71 40.6616H206.994L206.461 41.9219H205.422L207.865 36.5039H208.852L211.295 41.9219H210.242L209.71 40.6616ZM209.372 39.8821L208.345 37.5044L207.332 39.8821H209.372Z" fill="#F2F1E0"/>
<path d="M218.656 36.5039V41.9219H217.825L214.836 38.245V41.9219H213.836V36.5039H214.667L217.656 40.1679V36.5039H218.656Z" fill="#F2F1E0"/>
<path d="M223.062 37.3483H221.255V36.5037H225.855V37.3483H224.062V41.9218H223.062V37.3483Z" fill="#F2F1E0"/>
<path d="M228.464 36.5039H229.478V41.9219H228.464V36.5039Z" fill="#F2F1E0"/>
<path d="M237.602 36.5037V41.9218H236.77L233.782 38.2448V41.9218H232.781V36.5037H233.613L236.601 40.1677V36.5037H237.602Z" fill="#F2F1E0"/>
<path d="M244.422 40.6616H241.707L241.174 41.9219H240.135L242.577 36.5039H243.565L246.008 41.9219H244.955L244.422 40.6616ZM244.085 39.8821L243.058 37.5044L242.045 39.8821H244.085Z" fill="#F2F1E0"/>
<mask id="mask0_242_681" style="mask-type:luminance" maskUnits="userSpaceOnUse" x="13" y="0" width="32" height="32">
<path d="M13.4941 0H44.0166V31.5124H13.4941V0Z" fill="white"/>
</mask>
<g mask="url(#mask0_242_681)">
<path d="M27.41 31.2979C33.0969 26.877 36.7569 20.4669 40.2961 14.2639C40.9864 13.0544 41.7002 11.8056 42.4187 10.5851C42.7826 9.96697 43.1764 9.3269 43.6188 8.7135C41.0429 3.54589 35.7058 -0.00586319 29.5389 -0.00586319C20.8556 -0.00586319 13.8164 7.03332 13.8164 15.7182C13.8164 23.6798 19.7339 30.2578 27.41 31.2979Z" fill="#FFC737"/>
</g>
<mask id="mask1_242_681" style="mask-type:luminance" maskUnits="userSpaceOnUse" x="0" y="6" width="111" height="36">
<path d="M0 6.61271H110.242V41.9545H0V6.61271Z" fill="white"/>
</mask>
<g mask="url(#mask1_242_681)">
<path d="M110.047 40.8608C102.316 42.3873 94.16 42.1112 86.7239 39.4976C79.2894 36.8855 72.6267 31.8575 68.5557 25.1086C68.1509 24.4371 67.6834 23.6825 66.9163 23.5178C65.9766 23.3154 65.1483 24.0904 64.3152 24.5705C62.0656 25.8679 59.0692 25.0082 57.1553 23.2511C54.755 21.0438 53.7259 17.8309 52.3642 14.9632C51.8308 13.8399 50.7593 12.0421 49.3458 13.1481C48.9708 13.4414 48.7167 13.8572 48.4704 14.2635C44.0746 21.5239 39.853 29.2267 32.9707 34.468C28.3961 37.9523 22.9022 40.147 17.2372 41.1369C11.5708 42.1253 5.73484 41.9355 0.0699158 40.9408C10.0318 40.5047 20.4329 38.801 28.3365 32.7204C35.4933 27.2155 39.3996 19.0358 43.8754 11.4444C44.9108 9.68887 46.1219 7.84397 48.0327 7.1333C50.1647 6.34263 52.6293 7.24312 54.2985 8.78995C57.1976 11.4742 58.0275 15.2895 59.9509 18.5761C60.1783 18.9683 60.4356 19.3511 60.7839 19.6429C62.1236 20.7599 63.0963 19.2522 64.207 18.6153C65.2251 18.0302 66.3751 17.6176 67.5642 17.7948C70.0602 18.1651 71.4548 20.7661 72.7538 22.9295C76.4656 29.1168 82.3533 33.853 88.9516 36.7741C95.55 39.6937 102.832 40.8703 110.047 40.8608Z" fill="#F2F1E0"/>
</g>
</svg>
